<svg width="18" height="18" viewBox="0 0 18 18" fill="none" xmlns="http://www.w3.org/2000/svg">
<path fill-rule="evenodd" clip-rule="evenodd" d="M14.8334 0.666656C16.2141 0.666656 17.3334 1.78594 17.3334 3.16666V14.8333C17.3334 16.214 16.2141 17.3333 14.8334 17.3333H3.16669C1.78598 17.3333 0.666687 16.214 0.666687 14.8333V3.16666C0.666687 1.78594 1.78598 0.666656 3.16669 0.666656H14.8334ZM14.8334 2.33332H3.16669C2.70645 2.33332 2.33335 2.70642 2.33335 3.16666V14.8333C2.33335 15.2936 2.70645 15.6667 3.16669 15.6667H14.8334C15.2936 15.6667 15.6667 15.2936 15.6667 14.8333V3.16666C15.6667 2.70642 15.2936 2.33332 14.8334 2.33332ZM5.66669 10.6667C6.12692 10.6667 6.50002 11.0398 6.50002 11.5V13.1667C6.50002 13.6269 6.12692 14 5.66669 14C5.20645 14 4.83335 13.6269 4.83335 13.1667V11.5C4.83335 11.0398 5.20645 10.6667 5.66669 10.6667ZM9.00002 3.99999C9.46026 3.99999 9.83335 4.37309 9.83335 4.83332V13.1667C9.83335 13.6269 9.46026 14 9.00002 14C8.53978 14 8.16669 13.6269 8.16669 13.1667V4.83332C8.16669 4.37309 8.53978 3.99999 9.00002 3.99999ZM12.3334 7.33332C12.7936 7.33332 13.1667 7.70642 13.1667 8.16666V13.1667C13.1667 13.6269 12.7936 14 12.3334 14C11.8731 14 11.5 13.6269 11.5 13.1667V8.16666C11.5 7.70642 11.8731 7.33332 12.3334 7.33332Z" fill="#22C55E"/>
</svg>
